<svg width="157" height="131" viewBox="0 0 157 131" fill="none" xmlns="http://www.w3.org/2000/svg">
<path d="M76.9034 1.92188L86.2975 11.316M86.2975 1.92188L76.9034 11.316" stroke="black" stroke-opacity="0.1" stroke-width="2.58873"/>
<path d="M76.9034 40.7983L86.2975 50.1924M86.2975 40.7983L76.9034 50.1924" stroke="black" stroke-opacity="0.1" stroke-width="2.58873"/>
<path d="M76.9034 79.6746L86.2975 89.0687M86.2975 79.6746L76.9034 89.0687" stroke="black" stroke-opacity="0.1" stroke-width="2.58873"/>
<path d="M111.67 4.26986L124 9.55405M120.477 0.74707L115.34 12.7833" stroke="black" stroke-opacity="0.1" stroke-width="2.58873"/>
<path d="M111.67 43.1471L124 48.4312M120.477 39.6243L115.34 51.6605" stroke="black" stroke-opacity="0.1" stroke-width="2.58873"/>
<path d="M111.67 82.0233L124 87.3075M120.477 78.5005L115.34 90.5367" stroke="black" stroke-opacity="0.1" stroke-width="2.58873"/>
<path d="M51.5305 4.56332L39.2007 9.8475M42.7235 1.04053L47.8609 13.0767" stroke="black" stroke-opacity="0.1" stroke-width="2.58873"/>
<path d="M51.5305 43.4395L39.2007 48.7237M42.7235 39.9167L47.8609 51.9529" stroke="black" stroke-opacity="0.1" stroke-width="2.58873"/>
<path d="M51.5305 82.3167L39.2007 87.6009M42.7235 78.7939L47.8609 90.8301" stroke="black" stroke-opacity="0.1" stroke-width="2.58873"/>
<path d="M7.51623 0.453613L7.07588 13.6641M13.8279 7.35241L0.617432 6.91206" stroke="black" stroke-opacity="0.1" stroke-width="2.58873"/>
<path d="M7.51623 39.3298L7.07588 52.5403M13.8279 46.2286L0.617432 45.7883" stroke="black" stroke-opacity="0.1" stroke-width="2.58873"/>
<path d="M7.51623 78.207L7.07588 91.4175M13.8279 85.1058L0.617432 84.6655" stroke="black" stroke-opacity="0.1" stroke-width="2.58873"/>
</svg>
